<?xml version="1.0" encoding="UTF-8" standalone="no"?>
<svg xmlns="http://www.w3.org/2000/svg" xmlns:xlink="http://www.w3.org/1999/xlink" id="svg5" width="216.42528mm" height="250.00027mm" version="1.1" viewBox="0 0 216.42527 250.00028">
  <defs>
    <path id="path862" d="M.0000143 0H960.00001v540H.0000143Z" clip-rule="evenodd"/>
  </defs>
  <defs id="defs2">
    <clipPath id="clipPath838" clipPathUnits="userSpaceOnUse">
      <path id="path836" d="M0 .00012207h960V540.00012H0Z" clip-rule="evenodd"/>
    </clipPath>
    <clipPath id="clipPath848" clipPathUnits="userSpaceOnUse">
      <path id="path846" d="M-.000105.00018311H959.9999V540.00018H-.000105Z" clip-rule="evenodd"/>
    </clipPath>
    <clipPath id="clipPath864" clipPathUnits="userSpaceOnUse">
      <use xlink:href="#path862" clip-rule="evenodd"/>
    </clipPath>
    <clipPath id="clipPath876" clipPathUnits="userSpaceOnUse">
      <use xlink:href="#path862" id="path874" clip-rule="evenodd"/>
    </clipPath>
    <clipPath id="clipPath888" clipPathUnits="userSpaceOnUse">
      <use xlink:href="#path862" id="path886" clip-rule="evenodd"/>
    </clipPath>
    <clipPath id="clipPath900" clipPathUnits="userSpaceOnUse">
      <use xlink:href="#path862" id="path898" clip-rule="evenodd"/>
    </clipPath>
    <clipPath id="clipPath912" clipPathUnits="userSpaceOnUse">
      <use xlink:href="#path862" id="path910" clip-rule="evenodd"/>
    </clipPath>
    <clipPath id="clipPath924" clipPathUnits="userSpaceOnUse">
      <use xlink:href="#path862" id="path922" clip-rule="evenodd"/>
    </clipPath>
    <clipPath id="clipPath936" clipPathUnits="userSpaceOnUse">
      <use xlink:href="#path862" id="path934" clip-rule="evenodd"/>
    </clipPath>
    <clipPath id="clipPath948" clipPathUnits="userSpaceOnUse">
      <use xlink:href="#path862" id="path946" clip-rule="evenodd"/>
    </clipPath>
    <clipPath id="clipPath960" clipPathUnits="userSpaceOnUse">
      <use xlink:href="#path862" id="path958" clip-rule="evenodd"/>
    </clipPath>
    <clipPath id="clipPath972" clipPathUnits="userSpaceOnUse">
      <use xlink:href="#path862" id="path970" clip-rule="evenodd"/>
    </clipPath>
    <clipPath id="clipPath984" clipPathUnits="userSpaceOnUse">
      <use xlink:href="#path862" id="path982" clip-rule="evenodd"/>
    </clipPath>
    <clipPath id="clipPath996" clipPathUnits="userSpaceOnUse">
      <use xlink:href="#path862" id="path994" clip-rule="evenodd"/>
    </clipPath>
    <clipPath id="clipPath1008" clipPathUnits="userSpaceOnUse">
      <use xlink:href="#path862" id="path1006" clip-rule="evenodd"/>
    </clipPath>
    <clipPath id="clipPath1020" clipPathUnits="userSpaceOnUse">
      <use xlink:href="#path862" id="path1018" clip-rule="evenodd"/>
    </clipPath>
    <clipPath id="clipPath1032" clipPathUnits="userSpaceOnUse">
      <use xlink:href="#path862" id="path1030" clip-rule="evenodd"/>
    </clipPath>
    <clipPath id="clipPath1792" clipPathUnits="userSpaceOnUse">
      <path id="path1790" d="M0 841.89h595.276V0H0Z"/>
    </clipPath>
    <mask id="mask852" width="1" height="1" x="0" y="0" maskUnits="userSpaceOnUse"/>
    <mask id="mask852-7" width="1" height="1" x="0" y="0" maskUnits="userSpaceOnUse"/>
  </defs>
  <g id="layer1" transform="translate(-457.61175 -273.23547)">
    <path id="path1796" fill="#231f20" fill-opacity="1" fill-rule="nonzero" stroke="none" stroke-width="7.31437" d="m651.13825 288.61363-2.54547 1.31658v.007c2.94045 5.22259 3.71568 12.1273 1.89505 19.05399-3.02088-2.24545-5.12016-5.60285-6.14398-9.5159l-2.54547 1.31659v.007c-1.00974 3.80338-2.33336 7.57772-3.98626 11.28614-1.63795 3.68644-3.55478 7.16803-5.69076 10.44477l-.0415.083.71739 2.72833c2.55271-1.31658 5.44194-2.05469 8.51405-2.05469 1.03046 0 2.04848.0829 3.0354.24881-2.60393 6.16596-8.70419 10.49618-15.821 10.49618-6.6781 0-12.45636-3.8181-15.29438-9.39171 2.01946-.94337 3.59149-2.76483 4.10341-5.10545.71737-3.26223-1.35392-4.79092-.63653-8.04569.71738-3.26223 3.93503-5.3248 7.19726-4.60805 2.53075.55567 4.33748 2.61846 4.68124 5.03952 1.74785-1.05326 3.07936-2.79407 3.55479-4.95181.91435-4.16912-1.71883-8.28723-5.88069-9.20137-2.65515-.58469-5.28107.27782-7.08033 2.04847 1.08231-1.63795 1.88677-3.48158 2.33316-5.50022 1.09059-4.95926-.21978-9.91109-3.1598-13.75841-4.29353 2.26017-7.55575 6.20268-8.65276 11.169-.43957 2.01116-.4831 4.02294-.18661 5.96858-.89155-2.36259-2.91121-4.24956-5.56635-4.82741-4.16912-.92058-8.28703 1.71883-9.20139 5.88069-.47479 2.15048 0 4.29352 1.14864 5.9831 1.3311-2.04849 3.83262-3.16706 6.36337-2.61119 3.26223.71737 5.3248 3.94249 4.60805 7.20472-.71739 3.25476-3.24025 3.77414-3.95702 7.03637-.42503 1.92409-.0415 3.84008.89984 5.40527 0 0 .14513.23429.39394.62822-3.37917 2.63317-7.62894 4.19836-12.24425 4.19836-11.02261 0-19.96088-8.93081-19.96088-19.9609v-1.61722c6.29037.99522 11.8785 4.1546 15.95266 8.68221l2.13577-2.12852v-23.88141l-2.17226-2.17246c-4.07415 4.51308-9.64052 7.65092-15.91617 8.65296v-.0207c0-8.67476 5.92463-15.96718 13.94129-18.05921l-2.19444-2.20896c-5.91739-.42504-11.88577-.64274-17.91283-.64274-6.01979 0-11.99565.21977-17.91282.64274l-2.2017 2.20896c8.02392 2.09203 13.94855 9.37699 13.94855 18.05921v.0207c-6.27587-1.00142-11.84202-4.13988-15.91617-8.65296l-2.17226 2.17246v23.88141l2.13577 2.12852c4.08141-4.52761 9.65503-7.68741 15.95266-8.68221v1.61722c0 11.03009-8.93827 19.9609-19.96088 19.9609-4.58607 0-8.80662-1.54259-12.17852-4.13988.20733-.43127.32966-.68837.32966-.68837.94337-1.56538 1.32488-3.48159.89983-5.40526-.71737-3.26222-3.24025-3.7816-3.957-7.03637-.71739-3.26223 1.3456-6.48796 4.60804-7.20473 2.53074-.55566 5.03226.56396 6.36336 2.6112 1.14035-1.68979 1.62344-3.83262 1.14864-5.9831-.91435-4.16186-5.03971-6.8023-9.20883-5.88069-2.64769.57847-4.67378 2.46482-5.5589 4.82742.29235-1.94481.25709-3.95702-.1866-5.9686-1.09059-4.96632-4.352-8.90881-8.64572-11.169-2.94749 3.84734-4.24957 8.79916-3.1598 13.75843.44577 2.01945 1.25023 3.86185 2.33336 5.50021-1.79968-1.77064-4.42519-2.63316-7.07307-2.04847-4.16912.91435-6.80954 5.03226-5.88793 9.20137.46858 2.15775 1.79968 3.89854 3.55477 4.95181.34418-2.42107 2.1505-4.48364 4.67378-5.03951 3.26223-.71738 6.48796 1.34561 7.20473 4.60804.71738 3.25477-1.35391 4.78347-.63652 8.04569.51212 2.34062 2.08455 4.16932 4.10339 5.10545-2.83802 5.57361-8.62375 9.39171-15.29437 9.39171-7.11682 0-13.22433-4.33022-15.82827-10.4962.99522-.16586 2.00495-.24879 3.04267-.24879 3.06484 0 5.96133.73812 8.51406 2.0547l.70909-2.72834-.0415-.0829c-2.1285-3.27675-4.04471-6.75833-5.68329-10.44477-1.65247-3.70841-2.97693-7.4753-3.98624-11.27888v-.0145l-2.55274-1.31658c-1.02423 3.91305-3.1233 7.27045-6.13672 9.5159-1.82042-6.92669-1.04705-13.8314 1.88675-19.05399v-.007l-2.54547-1.31659c-4.44715 1.52806-10.45224 3.96447-14.81168 5.90266l25.59296 57.47631c22.76968-10.15222 47.98965-15.79903 74.53346-15.79903 26.54381 0 51.76379 5.64681 74.53325 15.79903l25.59297-57.47631c-4.35924-1.93859-10.36432-4.38123-14.81874-5.90266m11.71015 122.25958v8.3092c6.69282 1.56539 11.19844 7.32168 11.19844 14.50442 0 7.18255-4.50562 12.93178-11.19844 14.49695v8.31647c6.69282 1.56539 11.19844 7.31441 11.19844 14.49717 0 7.19-4.50562 12.93902-11.19844 14.5042v8.30922c6.69282 1.56539 11.19844 7.32166 11.19844 14.50441 0 8.45538-6.23916 14.92117-14.92137 14.92117-8.72595 0-14.92863-6.46579-14.92863-14.92117 0-7.19001 4.48365-12.9465 11.19098-14.50441v-8.30922c-6.70733-1.5571-11.19098-7.3142-11.19098-14.5042 0-7.19022 4.48365-12.93924 11.19098-14.50442v-8.30196c-6.70733-1.56539-11.19098-7.3142-11.19098-14.50421 0-7.19 4.48365-12.94649 11.19098-14.50442v-8.3092c-6.70733-1.5571-11.19098-7.31442-11.19098-14.50442 0-7.19001 4.48365-12.93904 11.19098-14.50421v-8.30196c-5.50042-1.27927-9.5014-5.38327-10.76677-10.77402h-7.88479v160.44782h-1.71881c-3.84734-11.55651-9.61834-22.23559-16.94001-31.64927v-1.9303h7.46059v-22.3892H606.8694v22.3892h3.73019v2.04848c-4.83467 9.64757-8.41143 20.2607-10.4595 31.53212h-1.46172c-2.04018-11.27142-5.62483-21.88455-10.46695-31.53212v-2.04848h3.73765v-22.3892h-18.65881v22.3892h3.73017v2.04848c-4.84212 9.64757-8.41889 20.2607-10.45948 31.53212h-1.4638c-2.04848-11.27142-5.62463-21.88455-10.46675-31.53212v-2.04848h3.7304v-22.38912h-18.65176v22.38921h3.7304v2.04847c-4.84213 9.64758-8.42614 20.26071-10.46696 31.53213h-1.4638c-2.04018-11.27142-5.62482-21.88455-10.45948-31.53213v-2.04847h3.73017v-22.38921h-18.65881v22.38921h7.46058v1.93029c-7.32166 9.41369-13.09266 20.09276-16.93999 31.64927h-1.71883V362.78693h-7.88479c-1.27304 5.39075-5.28831 9.48668-10.76676 10.76677v8.31647c6.68535 1.5654 11.19097 7.31441 11.19097 14.49696 0 7.18274-4.50562 12.93923-11.19097 14.50442v8.3092c6.68535 1.56539 11.19097 7.32168 11.19097 14.50442 0 7.18255-4.50562 12.93178-11.19097 14.49695v8.31646c6.68535 1.56539 11.19097 7.31442 11.19097 14.49717 0 7.19-4.50562 12.93903-11.19097 14.5042v8.30922c6.68535 1.56539 11.19097 7.32166 11.19097 14.50442 0 8.45538-6.23915 14.92116-14.92136 14.92116-8.72596 0-14.92863-6.46578-14.92863-14.92116 0-7.19002 4.49112-12.9465 11.19843-14.50442v-8.30922c-6.70731-1.55709-11.19843-7.3142-11.19843-14.5042 0-7.19021 4.49112-12.93924 11.19843-14.50441v-8.30196c-6.70731-1.56539-11.19843-7.3142-11.19843-14.50421 0-7.19 4.49112-12.94649 11.19843-14.50442v-8.3092c-6.70731-1.5571-11.19843-7.31442-11.19843-14.50442 0-7.19001 4.49112-12.93904 11.19843-14.50421v-8.30196c-6.70731-1.56539-11.19843-7.3142-11.19843-14.50442 0-8.45538 6.20267-14.92842 14.92863-14.92842 7.35111 0 12.9465 4.63728 14.49715 11.19099h157.57331c1.53636-6.55371 7.10956-11.19099 14.50442-11.19099 8.68221 0 14.92138 6.47304 14.92138 14.92842 0 7.18276-4.50564 12.93198-11.19845 14.49716v8.31647c6.69281 1.5654 11.19845 7.31441 11.19845 14.49696 0 7.18274-4.50564 12.93923-11.19845 14.50442m-186.64786 90.78592c-.34419 1.70431-1.77066 2.92573-3.65721 2.92573-1.88676 0-3.30597-1.22122-3.64974-2.92573-2.3626 1.17768-3.81085 3.56203-3.81085 6.65612 0 4.46166 3.00618 7.46058 7.46785 7.46058 4.46188 0 7.46079-2.99892 7.46079-7.46058 0-3.09409-1.441-5.47844-3.81084-6.65612m0-37.31783c-.34419 1.70429-1.77066 2.92572-3.65721 2.92572-1.88676 0-3.30597-1.22121-3.64974-2.92572-2.3626 1.17766-3.81085 3.56203-3.81085 6.65611 0 3.09387 1.44721 5.48571 3.81085 6.66337.34417-1.7126 1.76236-2.92593 3.64974-2.92593 1.88677 0 3.31344 1.21499 3.65721 2.92593 2.36984-1.17766 3.81084-3.5695 3.81084-6.66337 0-3.09408-1.441-5.47865-3.81084-6.65611m0-37.31059c-.34419 1.70431-1.77066 2.92572-3.65721 2.92572-1.88676 0-3.30597-1.22121-3.64974-2.92572-2.3626 1.17767-3.81085 3.56204-3.81085 6.65612 0 3.09386 1.44721 5.47845 3.81085 6.65591.34417-1.70431 1.76236-2.92572 3.64974-2.92572 1.88677 0 3.31344 1.22121 3.65721 2.92572 2.36984-1.17767 3.81084-3.56205 3.81084-6.65591 0-3.09408-1.441-5.48591-3.81084-6.65612m3.81084-67.97251c0-4.46892-2.99891-7.46784-7.46079-7.46784-4.46167 0-7.46785 2.99892-7.46785 7.46784 0 3.09409 1.44721 5.47866 3.81085 6.65612.34417-1.7043 1.76236-2.92573 3.64974-2.92573 1.88677 0 3.31344 1.22122 3.65721 2.92573 2.36984-1.17768 3.81084-3.56203 3.81084-6.65612m44.77842 74.62863h-18.65882v22.3892h18.65882zm0-33.58765h-18.65882v22.38921h18.65882zm0-33.58018h-18.65882v22.38921h18.65882zm33.58038 67.16783h-18.65901v22.3892h18.65901zm0-33.58765h-18.65901v22.38921h18.65901zm0-33.58018h-18.65901v22.38921h18.65901zm33.58745 67.16783h-18.65881v22.3892h18.65881zm0-33.58765h-18.65881v22.38921h18.65881zm0-33.58018h-18.65881v22.38921h18.65881zm33.58019 67.16783H606.8688v22.3892h18.65881zm0-33.58765H606.8688v22.38921h18.65881zm0-33.58018H606.8688v22.38921h18.65881zm29.93044-.80448c.34418-1.7043 1.75615-2.92571 3.64995-2.92571 1.88677 0 3.31344 1.22121 3.65721 2.92571 2.36238-1.17766 3.81063-3.56203 3.81063-6.6561 0-4.46894-2.9989-7.46784-7.46058-7.46784-4.46913 0-7.46805 2.9989-7.46805 7.46784 0 3.09407 1.44099 5.47864 3.81084 6.6561m7.30716 135.94481c-.34417 1.70431-1.77066 2.92573-3.65721 2.92573-1.89505 0-3.30619-1.22122-3.64995-2.92573-2.36985 1.17768-3.81084 3.56205-3.81084 6.65612 0 4.46168 2.99892 7.46058 7.46805 7.46058 4.46168 0 7.46058-2.9989 7.46058-7.46058 0-3.09407-1.44721-5.47844-3.81063-6.65612m0-37.31783c-.34417 1.70431-1.77066 2.92572-3.65721 2.92572-1.89505 0-3.30619-1.22121-3.64995-2.92572-2.36985 1.17767-3.81084 3.56203-3.81084 6.65612 0 3.09387 1.44099 5.4857 3.81084 6.66337.34418-1.71259 1.75615-2.92592 3.64995-2.92592 1.88677 0 3.31344 1.21499 3.65721 2.92592 2.36238-1.17767 3.81063-3.5695 3.81063-6.66337 0-3.09409-1.44721-5.47866-3.81063-6.65612m0-37.31058c-.34417 1.7043-1.77066 2.92571-3.65721 2.92571-1.89505 0-3.30619-1.22119-3.64995-2.92571-2.36985 1.17766-3.81084 3.56204-3.81084 6.65612 0 3.09387 1.44099 5.47844 3.81084 6.6559.34418-1.70429 1.75615-2.92572 3.64995-2.92572 1.88677 0 3.31344 1.22121 3.65721 2.92572 2.36238-1.17766 3.81063-3.56203 3.81063-6.6559 0-3.09408-1.44721-5.48592-3.81063-6.65612m-186.57483-37.31783c-.34419 1.7043-1.77066 2.92571-3.65721 2.92571-1.88676 0-3.30597-1.22121-3.64974-2.92571-2.3626 1.17766-3.81085 3.56203-3.81085 6.6559 0 3.09409 1.44721 5.47844 3.81085 6.65612.34417-1.70431 1.76236-2.92573 3.64974-2.92573 1.88677 0 3.31344 1.22122 3.65721 2.92573 2.36984-1.17768 3.81084-3.56203 3.81084-6.65612 0-3.09387-1.441-5.47844-3.81084-6.6559m186.57488 0c-.34417 1.7043-1.77066 2.92571-3.65721 2.92571-1.89505 0-3.30619-1.22121-3.64995-2.92571-2.36985 1.17766-3.81084 3.56203-3.81084 6.6559 0 3.09409 1.44099 5.47844 3.81084 6.65612.34418-1.70431 1.75615-2.92573 3.64995-2.92573 1.88677 0 3.31344 1.22122 3.65721 2.92573 2.36238-1.17768 3.81063-3.56203 3.81063-6.65612 0-3.09387-1.44721-5.47844-3.81063-6.6559"/>
  </g>
</svg>